<svg xmlns="http://www.w3.org/2000/svg" viewBox="0 0 64 64" width="64" height="64">
  <rect width="64" height="64" rx="14" fill="#F8FAFC"/>
  <g fill="none" stroke="#14B88F" stroke-width="3.2" stroke-linejoin="round" stroke-linecap="round" transform="translate(0,4)">
    <path d="M32 10c4 7 4 18 0 28-4-10-4-21 0-28Z"/>
    <path d="M32 38c-5-6-12-9-19-8 2 6 8 11 19 12Z"/>
    <path d="M32 38c5-6 12-9 19-8-2 6-8 11-19 12Z"/>
    <path d="M13 30c-4 4-6 9-6 14 6-1 11-5 14-12Z"/>
    <path d="M51 30c4 4 6 9 6 14-6-1-11-5-14-12Z"/>
    <path d="M8 48c8 5 16 6 24 6s16-1 24-6"/>
  </g>
</svg>
